<svg width="303" height="375" viewBox="0 0 303 375" fill="none" xmlns="http://www.w3.org/2000/svg">
<rect width="50" height="50" rx="4" fill="#00E396"/>
<rect y="65" width="50" height="50" rx="4" fill="#F06500"/>
<rect y="130" width="50" height="50" rx="4" fill="#8B35E2"/>
<rect y="195" width="50" height="50" rx="4" fill="#00B2FF"/>
<rect y="260" width="50" height="50" rx="4" fill="#FFA800"/>
<rect y="325" width="50" height="50" rx="4" fill="#FF4560"/>
<path d="M80.58 33.126C79.704 33.126 78.912 32.976 78.204 32.676C77.508 32.376 76.956 31.944 76.548 31.38C76.14 30.816 75.93 30.15 75.918 29.382H78.618C78.654 29.898 78.834 30.306 79.158 30.606C79.494 30.906 79.95 31.056 80.526 31.056C81.114 31.056 81.576 30.918 81.912 30.642C82.248 30.354 82.416 29.982 82.416 29.526C82.416 29.154 82.302 28.848 82.074 28.608C81.846 28.368 81.558 28.182 81.21 28.05C80.874 27.906 80.406 27.75 79.806 27.582C78.99 27.342 78.324 27.108 77.808 26.88C77.304 26.64 76.866 26.286 76.494 25.818C76.134 25.338 75.954 24.702 75.954 23.91C75.954 23.166 76.14 22.518 76.512 21.966C76.884 21.414 77.406 20.994 78.078 20.706C78.75 20.406 79.518 20.256 80.382 20.256C81.678 20.256 82.728 20.574 83.532 21.21C84.348 21.834 84.798 22.71 84.882 23.838H82.11C82.086 23.406 81.9 23.052 81.552 22.776C81.216 22.488 80.766 22.344 80.202 22.344C79.71 22.344 79.314 22.47 79.014 22.722C78.726 22.974 78.582 23.34 78.582 23.82C78.582 24.156 78.69 24.438 78.906 24.666C79.134 24.882 79.41 25.062 79.734 25.206C80.07 25.338 80.538 25.494 81.138 25.674C81.954 25.914 82.62 26.154 83.136 26.394C83.652 26.634 84.096 26.994 84.468 27.474C84.84 27.954 85.026 28.584 85.026 29.364C85.026 30.036 84.852 30.66 84.504 31.236C84.156 31.812 83.646 32.274 82.974 32.622C82.302 32.958 81.504 33.126 80.58 33.126ZM96.4808 27.798C96.4808 28.158 96.4568 28.482 96.4088 28.77H89.1188C89.1788 29.49 89.4308 30.054 89.8748 30.462C90.3188 30.87 90.8648 31.074 91.5128 31.074C92.4488 31.074 93.1148 30.672 93.5108 29.868H96.2288C95.9408 30.828 95.3888 31.62 94.5728 32.244C93.7568 32.856 92.7548 33.162 91.5668 33.162C90.6068 33.162 89.7428 32.952 88.9748 32.532C88.2188 32.1 87.6248 31.494 87.1928 30.714C86.7728 29.934 86.5627 29.034 86.5627 28.014C86.5627 26.982 86.7728 26.076 87.1928 25.296C87.6128 24.516 88.2008 23.916 88.9568 23.496C89.7128 23.076 90.5828 22.866 91.5668 22.866C92.5148 22.866 93.3608 23.07 94.1048 23.478C94.8608 23.886 95.4428 24.468 95.8508 25.224C96.2708 25.968 96.4808 26.826 96.4808 27.798ZM93.8708 27.078C93.8588 26.43 93.6248 25.914 93.1688 25.53C92.7128 25.134 92.1548 24.936 91.4948 24.936C90.8708 24.936 90.3428 25.128 89.9108 25.512C89.4908 25.884 89.2328 26.406 89.1368 27.078H93.8708ZM97.6721 27.978C97.6721 26.97 97.8701 26.076 98.2661 25.296C98.6741 24.516 99.2261 23.916 99.9221 23.496C100.618 23.076 101.392 22.866 102.244 22.866C102.892 22.866 103.51 23.01 104.098 23.298C104.686 23.574 105.154 23.946 105.502 24.414V19.68H108.058V33H105.502V31.524C105.19 32.016 104.752 32.412 104.188 32.712C103.624 33.012 102.97 33.162 102.226 33.162C101.386 33.162 100.618 32.946 99.9221 32.514C99.2261 32.082 98.6741 31.476 98.2661 30.696C97.8701 29.904 97.6721 28.998 97.6721 27.978ZM105.52 28.014C105.52 27.402 105.4 26.88 105.16 26.448C104.92 26.004 104.596 25.668 104.188 25.44C103.78 25.2 103.342 25.08 102.874 25.08C102.406 25.08 101.974 25.194 101.578 25.422C101.182 25.65 100.858 25.986 100.606 26.43C100.366 26.862 100.246 27.378 100.246 27.978C100.246 28.578 100.366 29.106 100.606 29.562C100.858 30.006 101.182 30.348 101.578 30.588C101.986 30.828 102.418 30.948 102.874 30.948C103.342 30.948 103.78 30.834 104.188 30.606C104.596 30.366 104.92 30.03 105.16 29.598C105.4 29.154 105.52 28.626 105.52 28.014ZM118.624 33.162C117.808 33.162 117.076 33.018 116.428 32.73C115.78 32.43 115.264 32.028 114.88 31.524C114.508 31.02 114.304 30.462 114.268 29.85H116.806C116.854 30.234 117.04 30.552 117.364 30.804C117.7 31.056 118.114 31.182 118.606 31.182C119.086 31.182 119.458 31.086 119.722 30.894C119.998 30.702 120.136 30.456 120.136 30.156C120.136 29.832 119.968 29.592 119.632 29.436C119.308 29.268 118.786 29.088 118.066 28.896C117.322 28.716 116.71 28.53 116.23 28.338C115.762 28.146 115.354 27.852 115.006 27.456C114.67 27.06 114.502 26.526 114.502 25.854C114.502 25.302 114.658 24.798 114.97 24.342C115.294 23.886 115.75 23.526 116.338 23.262C116.938 22.998 117.64 22.866 118.444 22.866C119.632 22.866 120.58 23.166 121.288 23.766C121.996 24.354 122.386 25.152 122.458 26.16H120.046C120.01 25.764 119.842 25.452 119.542 25.224C119.254 24.984 118.864 24.864 118.372 24.864C117.916 24.864 117.562 24.948 117.31 25.116C117.07 25.284 116.95 25.518 116.95 25.818C116.95 26.154 117.118 26.412 117.454 26.592C117.79 26.76 118.312 26.934 119.02 27.114C119.74 27.294 120.334 27.48 120.802 27.672C121.27 27.864 121.672 28.164 122.008 28.572C122.356 28.968 122.536 29.496 122.548 30.156C122.548 30.732 122.386 31.248 122.062 31.704C121.75 32.16 121.294 32.52 120.694 32.784C120.106 33.036 119.416 33.162 118.624 33.162ZM133.887 27.798C133.887 28.158 133.863 28.482 133.815 28.77H126.525C126.585 29.49 126.837 30.054 127.281 30.462C127.725 30.87 128.271 31.074 128.919 31.074C129.855 31.074 130.521 30.672 130.917 29.868H133.635C133.347 30.828 132.795 31.62 131.979 32.244C131.163 32.856 130.161 33.162 128.973 33.162C128.013 33.162 127.149 32.952 126.381 32.532C125.625 32.1 125.031 31.494 124.599 30.714C124.179 29.934 123.969 29.034 123.969 28.014C123.969 26.982 124.179 26.076 124.599 25.296C125.019 24.516 125.607 23.916 126.363 23.496C127.119 23.076 127.989 22.866 128.973 22.866C129.921 22.866 130.767 23.07 131.511 23.478C132.267 23.886 132.849 24.468 133.257 25.224C133.677 25.968 133.887 26.826 133.887 27.798ZM131.277 27.078C131.265 26.43 131.031 25.914 130.575 25.53C130.119 25.134 129.561 24.936 128.901 24.936C128.277 24.936 127.749 25.128 127.317 25.512C126.897 25.884 126.639 26.406 126.543 27.078H131.277ZM148.11 22.884C149.334 22.884 150.318 23.262 151.062 24.018C151.818 24.762 152.196 25.806 152.196 27.15V33H149.676V27.492C149.676 26.712 149.478 26.118 149.082 25.71C148.686 25.29 148.146 25.08 147.462 25.08C146.778 25.08 146.232 25.29 145.824 25.71C145.428 26.118 145.23 26.712 145.23 27.492V33H142.71V27.492C142.71 26.712 142.512 26.118 142.116 25.71C141.72 25.29 141.18 25.08 140.496 25.08C139.8 25.08 139.248 25.29 138.84 25.71C138.444 26.118 138.246 26.712 138.246 27.492V33H135.726V23.028H138.246V24.234C138.57 23.814 138.984 23.484 139.488 23.244C140.004 23.004 140.568 22.884 141.18 22.884C141.96 22.884 142.656 23.052 143.268 23.388C143.88 23.712 144.354 24.18 144.69 24.792C145.014 24.216 145.482 23.754 146.094 23.406C146.718 23.058 147.39 22.884 148.11 22.884Z" fill="white"/>
<path d="M80.58 98.126C79.704 98.126 78.912 97.976 78.204 97.676C77.508 97.376 76.956 96.944 76.548 96.38C76.14 95.816 75.93 95.15 75.918 94.382H78.618C78.654 94.898 78.834 95.306 79.158 95.606C79.494 95.906 79.95 96.056 80.526 96.056C81.114 96.056 81.576 95.918 81.912 95.642C82.248 95.354 82.416 94.982 82.416 94.526C82.416 94.154 82.302 93.848 82.074 93.608C81.846 93.368 81.558 93.182 81.21 93.05C80.874 92.906 80.406 92.75 79.806 92.582C78.99 92.342 78.324 92.108 77.808 91.88C77.304 91.64 76.866 91.286 76.494 90.818C76.134 90.338 75.954 89.702 75.954 88.91C75.954 88.166 76.14 87.518 76.512 86.966C76.884 86.414 77.406 85.994 78.078 85.706C78.75 85.406 79.518 85.256 80.382 85.256C81.678 85.256 82.728 85.574 83.532 86.21C84.348 86.834 84.798 87.71 84.882 88.838H82.11C82.086 88.406 81.9 88.052 81.552 87.776C81.216 87.488 80.766 87.344 80.202 87.344C79.71 87.344 79.314 87.47 79.014 87.722C78.726 87.974 78.582 88.34 78.582 88.82C78.582 89.156 78.69 89.438 78.906 89.666C79.134 89.882 79.41 90.062 79.734 90.206C80.07 90.338 80.538 90.494 81.138 90.674C81.954 90.914 82.62 91.154 83.136 91.394C83.652 91.634 84.096 91.994 84.468 92.474C84.84 92.954 85.026 93.584 85.026 94.364C85.026 95.036 84.852 95.66 84.504 96.236C84.156 96.812 83.646 97.274 82.974 97.622C82.302 97.958 81.504 98.126 80.58 98.126ZM96.4808 92.798C96.4808 93.158 96.4568 93.482 96.4088 93.77H89.1188C89.1788 94.49 89.4308 95.054 89.8748 95.462C90.3188 95.87 90.8648 96.074 91.5128 96.074C92.4488 96.074 93.1148 95.672 93.5108 94.868H96.2288C95.9408 95.828 95.3888 96.62 94.5728 97.244C93.7568 97.856 92.7548 98.162 91.5668 98.162C90.6068 98.162 89.7428 97.952 88.9748 97.532C88.2188 97.1 87.6248 96.494 87.1928 95.714C86.7728 94.934 86.5627 94.034 86.5627 93.014C86.5627 91.982 86.7728 91.076 87.1928 90.296C87.6128 89.516 88.2008 88.916 88.9568 88.496C89.7128 88.076 90.5828 87.866 91.5668 87.866C92.5148 87.866 93.3608 88.07 94.1048 88.478C94.8608 88.886 95.4428 89.468 95.8508 90.224C96.2708 90.968 96.4808 91.826 96.4808 92.798ZM93.8708 92.078C93.8588 91.43 93.6248 90.914 93.1688 90.53C92.7128 90.134 92.1548 89.936 91.4948 89.936C90.8708 89.936 90.3428 90.128 89.9108 90.512C89.4908 90.884 89.2328 91.406 89.1368 92.078H93.8708ZM97.6721 92.978C97.6721 91.97 97.8701 91.076 98.2661 90.296C98.6741 89.516 99.2261 88.916 99.9221 88.496C100.618 88.076 101.392 87.866 102.244 87.866C102.892 87.866 103.51 88.01 104.098 88.298C104.686 88.574 105.154 88.946 105.502 89.414V84.68H108.058V98H105.502V96.524C105.19 97.016 104.752 97.412 104.188 97.712C103.624 98.012 102.97 98.162 102.226 98.162C101.386 98.162 100.618 97.946 99.9221 97.514C99.2261 97.082 98.6741 96.476 98.2661 95.696C97.8701 94.904 97.6721 93.998 97.6721 92.978ZM105.52 93.014C105.52 92.402 105.4 91.88 105.16 91.448C104.92 91.004 104.596 90.668 104.188 90.44C103.78 90.2 103.342 90.08 102.874 90.08C102.406 90.08 101.974 90.194 101.578 90.422C101.182 90.65 100.858 90.986 100.606 91.43C100.366 91.862 100.246 92.378 100.246 92.978C100.246 93.578 100.366 94.106 100.606 94.562C100.858 95.006 101.182 95.348 101.578 95.588C101.986 95.828 102.418 95.948 102.874 95.948C103.342 95.948 103.78 95.834 104.188 95.606C104.596 95.366 104.92 95.03 105.16 94.598C105.4 94.154 105.52 93.626 105.52 93.014ZM118.624 98.162C117.808 98.162 117.076 98.018 116.428 97.73C115.78 97.43 115.264 97.028 114.88 96.524C114.508 96.02 114.304 95.462 114.268 94.85H116.806C116.854 95.234 117.04 95.552 117.364 95.804C117.7 96.056 118.114 96.182 118.606 96.182C119.086 96.182 119.458 96.086 119.722 95.894C119.998 95.702 120.136 95.456 120.136 95.156C120.136 94.832 119.968 94.592 119.632 94.436C119.308 94.268 118.786 94.088 118.066 93.896C117.322 93.716 116.71 93.53 116.23 93.338C115.762 93.146 115.354 92.852 115.006 92.456C114.67 92.06 114.502 91.526 114.502 90.854C114.502 90.302 114.658 89.798 114.97 89.342C115.294 88.886 115.75 88.526 116.338 88.262C116.938 87.998 117.64 87.866 118.444 87.866C119.632 87.866 120.58 88.166 121.288 88.766C121.996 89.354 122.386 90.152 122.458 91.16H120.046C120.01 90.764 119.842 90.452 119.542 90.224C119.254 89.984 118.864 89.864 118.372 89.864C117.916 89.864 117.562 89.948 117.31 90.116C117.07 90.284 116.95 90.518 116.95 90.818C116.95 91.154 117.118 91.412 117.454 91.592C117.79 91.76 118.312 91.934 119.02 92.114C119.74 92.294 120.334 92.48 120.802 92.672C121.27 92.864 121.672 93.164 122.008 93.572C122.356 93.968 122.536 94.496 122.548 95.156C122.548 95.732 122.386 96.248 122.062 96.704C121.75 97.16 121.294 97.52 120.694 97.784C120.106 98.036 119.416 98.162 118.624 98.162ZM133.887 92.798C133.887 93.158 133.863 93.482 133.815 93.77H126.525C126.585 94.49 126.837 95.054 127.281 95.462C127.725 95.87 128.271 96.074 128.919 96.074C129.855 96.074 130.521 95.672 130.917 94.868H133.635C133.347 95.828 132.795 96.62 131.979 97.244C131.163 97.856 130.161 98.162 128.973 98.162C128.013 98.162 127.149 97.952 126.381 97.532C125.625 97.1 125.031 96.494 124.599 95.714C124.179 94.934 123.969 94.034 123.969 93.014C123.969 91.982 124.179 91.076 124.599 90.296C125.019 89.516 125.607 88.916 126.363 88.496C127.119 88.076 127.989 87.866 128.973 87.866C129.921 87.866 130.767 88.07 131.511 88.478C132.267 88.886 132.849 89.468 133.257 90.224C133.677 90.968 133.887 91.826 133.887 92.798ZM131.277 92.078C131.265 91.43 131.031 90.914 130.575 90.53C130.119 90.134 129.561 89.936 128.901 89.936C128.277 89.936 127.749 90.128 127.317 90.512C126.897 90.884 126.639 91.406 126.543 92.078H131.277ZM148.11 87.884C149.334 87.884 150.318 88.262 151.062 89.018C151.818 89.762 152.196 90.806 152.196 92.15V98H149.676V92.492C149.676 91.712 149.478 91.118 149.082 90.71C148.686 90.29 148.146 90.08 147.462 90.08C146.778 90.08 146.232 90.29 145.824 90.71C145.428 91.118 145.23 91.712 145.23 92.492V98H142.71V92.492C142.71 91.712 142.512 91.118 142.116 90.71C141.72 90.29 141.18 90.08 140.496 90.08C139.8 90.08 139.248 90.29 138.84 90.71C138.444 91.118 138.246 91.712 138.246 92.492V98H135.726V88.028H138.246V89.234C138.57 88.814 138.984 88.484 139.488 88.244C140.004 88.004 140.568 87.884 141.18 87.884C141.96 87.884 142.656 88.052 143.268 88.388C143.88 88.712 144.354 89.18 144.69 89.792C145.014 89.216 145.482 88.754 146.094 88.406C146.718 88.058 147.39 87.884 148.11 87.884Z" fill="white"/>
<path d="M80.58 163.126C79.704 163.126 78.912 162.976 78.204 162.676C77.508 162.376 76.956 161.944 76.548 161.38C76.14 160.816 75.93 160.15 75.918 159.382H78.618C78.654 159.898 78.834 160.306 79.158 160.606C79.494 160.906 79.95 161.056 80.526 161.056C81.114 161.056 81.576 160.918 81.912 160.642C82.248 160.354 82.416 159.982 82.416 159.526C82.416 159.154 82.302 158.848 82.074 158.608C81.846 158.368 81.558 158.182 81.21 158.05C80.874 157.906 80.406 157.75 79.806 157.582C78.99 157.342 78.324 157.108 77.808 156.88C77.304 156.64 76.866 156.286 76.494 155.818C76.134 155.338 75.954 154.702 75.954 153.91C75.954 153.166 76.14 152.518 76.512 151.966C76.884 151.414 77.406 150.994 78.078 150.706C78.75 150.406 79.518 150.256 80.382 150.256C81.678 150.256 82.728 150.574 83.532 151.21C84.348 151.834 84.798 152.71 84.882 153.838H82.11C82.086 153.406 81.9 153.052 81.552 152.776C81.216 152.488 80.766 152.344 80.202 152.344C79.71 152.344 79.314 152.47 79.014 152.722C78.726 152.974 78.582 153.34 78.582 153.82C78.582 154.156 78.69 154.438 78.906 154.666C79.134 154.882 79.41 155.062 79.734 155.206C80.07 155.338 80.538 155.494 81.138 155.674C81.954 155.914 82.62 156.154 83.136 156.394C83.652 156.634 84.096 156.994 84.468 157.474C84.84 157.954 85.026 158.584 85.026 159.364C85.026 160.036 84.852 160.66 84.504 161.236C84.156 161.812 83.646 162.274 82.974 162.622C82.302 162.958 81.504 163.126 80.58 163.126ZM96.4808 157.798C96.4808 158.158 96.4568 158.482 96.4088 158.77H89.1188C89.1788 159.49 89.4308 160.054 89.8748 160.462C90.3188 160.87 90.8648 161.074 91.5128 161.074C92.4488 161.074 93.1148 160.672 93.5108 159.868H96.2288C95.9408 160.828 95.3888 161.62 94.5728 162.244C93.7568 162.856 92.7548 163.162 91.5668 163.162C90.6068 163.162 89.7428 162.952 88.9748 162.532C88.2188 162.1 87.6248 161.494 87.1928 160.714C86.7728 159.934 86.5627 159.034 86.5627 158.014C86.5627 156.982 86.7728 156.076 87.1928 155.296C87.6128 154.516 88.2008 153.916 88.9568 153.496C89.7128 153.076 90.5828 152.866 91.5668 152.866C92.5148 152.866 93.3608 153.07 94.1048 153.478C94.8608 153.886 95.4428 154.468 95.8508 155.224C96.2708 155.968 96.4808 156.826 96.4808 157.798ZM93.8708 157.078C93.8588 156.43 93.6248 155.914 93.1688 155.53C92.7128 155.134 92.1548 154.936 91.4948 154.936C90.8708 154.936 90.3428 155.128 89.9108 155.512C89.4908 155.884 89.2328 156.406 89.1368 157.078H93.8708ZM97.6721 157.978C97.6721 156.97 97.8701 156.076 98.2661 155.296C98.6741 154.516 99.2261 153.916 99.9221 153.496C100.618 153.076 101.392 152.866 102.244 152.866C102.892 152.866 103.51 153.01 104.098 153.298C104.686 153.574 105.154 153.946 105.502 154.414V149.68H108.058V163H105.502V161.524C105.19 162.016 104.752 162.412 104.188 162.712C103.624 163.012 102.97 163.162 102.226 163.162C101.386 163.162 100.618 162.946 99.9221 162.514C99.2261 162.082 98.6741 161.476 98.2661 160.696C97.8701 159.904 97.6721 158.998 97.6721 157.978ZM105.52 158.014C105.52 157.402 105.4 156.88 105.16 156.448C104.92 156.004 104.596 155.668 104.188 155.44C103.78 155.2 103.342 155.08 102.874 155.08C102.406 155.08 101.974 155.194 101.578 155.422C101.182 155.65 100.858 155.986 100.606 156.43C100.366 156.862 100.246 157.378 100.246 157.978C100.246 158.578 100.366 159.106 100.606 159.562C100.858 160.006 101.182 160.348 101.578 160.588C101.986 160.828 102.418 160.948 102.874 160.948C103.342 160.948 103.78 160.834 104.188 160.606C104.596 160.366 104.92 160.03 105.16 159.598C105.4 159.154 105.52 158.626 105.52 158.014ZM118.624 163.162C117.808 163.162 117.076 163.018 116.428 162.73C115.78 162.43 115.264 162.028 114.88 161.524C114.508 161.02 114.304 160.462 114.268 159.85H116.806C116.854 160.234 117.04 160.552 117.364 160.804C117.7 161.056 118.114 161.182 118.606 161.182C119.086 161.182 119.458 161.086 119.722 160.894C119.998 160.702 120.136 160.456 120.136 160.156C120.136 159.832 119.968 159.592 119.632 159.436C119.308 159.268 118.786 159.088 118.066 158.896C117.322 158.716 116.71 158.53 116.23 158.338C115.762 158.146 115.354 157.852 115.006 157.456C114.67 157.06 114.502 156.526 114.502 155.854C114.502 155.302 114.658 154.798 114.97 154.342C115.294 153.886 115.75 153.526 116.338 153.262C116.938 152.998 117.64 152.866 118.444 152.866C119.632 152.866 120.58 153.166 121.288 153.766C121.996 154.354 122.386 155.152 122.458 156.16H120.046C120.01 155.764 119.842 155.452 119.542 155.224C119.254 154.984 118.864 154.864 118.372 154.864C117.916 154.864 117.562 154.948 117.31 155.116C117.07 155.284 116.95 155.518 116.95 155.818C116.95 156.154 117.118 156.412 117.454 156.592C117.79 156.76 118.312 156.934 119.02 157.114C119.74 157.294 120.334 157.48 120.802 157.672C121.27 157.864 121.672 158.164 122.008 158.572C122.356 158.968 122.536 159.496 122.548 160.156C122.548 160.732 122.386 161.248 122.062 161.704C121.75 162.16 121.294 162.52 120.694 162.784C120.106 163.036 119.416 163.162 118.624 163.162ZM133.887 157.798C133.887 158.158 133.863 158.482 133.815 158.77H126.525C126.585 159.49 126.837 160.054 127.281 160.462C127.725 160.87 128.271 161.074 128.919 161.074C129.855 161.074 130.521 160.672 130.917 159.868H133.635C133.347 160.828 132.795 161.62 131.979 162.244C131.163 162.856 130.161 163.162 128.973 163.162C128.013 163.162 127.149 162.952 126.381 162.532C125.625 162.1 125.031 161.494 124.599 160.714C124.179 159.934 123.969 159.034 123.969 158.014C123.969 156.982 124.179 156.076 124.599 155.296C125.019 154.516 125.607 153.916 126.363 153.496C127.119 153.076 127.989 152.866 128.973 152.866C129.921 152.866 130.767 153.07 131.511 153.478C132.267 153.886 132.849 154.468 133.257 155.224C133.677 155.968 133.887 156.826 133.887 157.798ZM131.277 157.078C131.265 156.43 131.031 155.914 130.575 155.53C130.119 155.134 129.561 154.936 128.901 154.936C128.277 154.936 127.749 155.128 127.317 155.512C126.897 155.884 126.639 156.406 126.543 157.078H131.277ZM148.11 152.884C149.334 152.884 150.318 153.262 151.062 154.018C151.818 154.762 152.196 155.806 152.196 157.15V163H149.676V157.492C149.676 156.712 149.478 156.118 149.082 155.71C148.686 155.29 148.146 155.08 147.462 155.08C146.778 155.08 146.232 155.29 145.824 155.71C145.428 156.118 145.23 156.712 145.23 157.492V163H142.71V157.492C142.71 156.712 142.512 156.118 142.116 155.71C141.72 155.29 141.18 155.08 140.496 155.08C139.8 155.08 139.248 155.29 138.84 155.71C138.444 156.118 138.246 156.712 138.246 157.492V163H135.726V153.028H138.246V154.234C138.57 153.814 138.984 153.484 139.488 153.244C140.004 153.004 140.568 152.884 141.18 152.884C141.96 152.884 142.656 153.052 143.268 153.388C143.88 153.712 144.354 154.18 144.69 154.792C145.014 154.216 145.482 153.754 146.094 153.406C146.718 153.058 147.39 152.884 148.11 152.884Z" fill="white"/>
<path d="M80.58 228.126C79.704 228.126 78.912 227.976 78.204 227.676C77.508 227.376 76.956 226.944 76.548 226.38C76.14 225.816 75.93 225.15 75.918 224.382H78.618C78.654 224.898 78.834 225.306 79.158 225.606C79.494 225.906 79.95 226.056 80.526 226.056C81.114 226.056 81.576 225.918 81.912 225.642C82.248 225.354 82.416 224.982 82.416 224.526C82.416 224.154 82.302 223.848 82.074 223.608C81.846 223.368 81.558 223.182 81.21 223.05C80.874 222.906 80.406 222.75 79.806 222.582C78.99 222.342 78.324 222.108 77.808 221.88C77.304 221.64 76.866 221.286 76.494 220.818C76.134 220.338 75.954 219.702 75.954 218.91C75.954 218.166 76.14 217.518 76.512 216.966C76.884 216.414 77.406 215.994 78.078 215.706C78.75 215.406 79.518 215.256 80.382 215.256C81.678 215.256 82.728 215.574 83.532 216.21C84.348 216.834 84.798 217.71 84.882 218.838H82.11C82.086 218.406 81.9 218.052 81.552 217.776C81.216 217.488 80.766 217.344 80.202 217.344C79.71 217.344 79.314 217.47 79.014 217.722C78.726 217.974 78.582 218.34 78.582 218.82C78.582 219.156 78.69 219.438 78.906 219.666C79.134 219.882 79.41 220.062 79.734 220.206C80.07 220.338 80.538 220.494 81.138 220.674C81.954 220.914 82.62 221.154 83.136 221.394C83.652 221.634 84.096 221.994 84.468 222.474C84.84 222.954 85.026 223.584 85.026 224.364C85.026 225.036 84.852 225.66 84.504 226.236C84.156 226.812 83.646 227.274 82.974 227.622C82.302 227.958 81.504 228.126 80.58 228.126ZM96.4808 222.798C96.4808 223.158 96.4568 223.482 96.4088 223.77H89.1188C89.1788 224.49 89.4308 225.054 89.8748 225.462C90.3188 225.87 90.8648 226.074 91.5128 226.074C92.4488 226.074 93.1148 225.672 93.5108 224.868H96.2288C95.9408 225.828 95.3888 226.62 94.5728 227.244C93.7568 227.856 92.7548 228.162 91.5668 228.162C90.6068 228.162 89.7428 227.952 88.9748 227.532C88.2188 227.1 87.6248 226.494 87.1928 225.714C86.7728 224.934 86.5627 224.034 86.5627 223.014C86.5627 221.982 86.7728 221.076 87.1928 220.296C87.6128 219.516 88.2008 218.916 88.9568 218.496C89.7128 218.076 90.5828 217.866 91.5668 217.866C92.5148 217.866 93.3608 218.07 94.1048 218.478C94.8608 218.886 95.4428 219.468 95.8508 220.224C96.2708 220.968 96.4808 221.826 96.4808 222.798ZM93.8708 222.078C93.8588 221.43 93.6248 220.914 93.1688 220.53C92.7128 220.134 92.1548 219.936 91.4948 219.936C90.8708 219.936 90.3428 220.128 89.9108 220.512C89.4908 220.884 89.2328 221.406 89.1368 222.078H93.8708ZM97.6721 222.978C97.6721 221.97 97.8701 221.076 98.2661 220.296C98.6741 219.516 99.2261 218.916 99.9221 218.496C100.618 218.076 101.392 217.866 102.244 217.866C102.892 217.866 103.51 218.01 104.098 218.298C104.686 218.574 105.154 218.946 105.502 219.414V214.68H108.058V228H105.502V226.524C105.19 227.016 104.752 227.412 104.188 227.712C103.624 228.012 102.97 228.162 102.226 228.162C101.386 228.162 100.618 227.946 99.9221 227.514C99.2261 227.082 98.6741 226.476 98.2661 225.696C97.8701 224.904 97.6721 223.998 97.6721 222.978ZM105.52 223.014C105.52 222.402 105.4 221.88 105.16 221.448C104.92 221.004 104.596 220.668 104.188 220.44C103.78 220.2 103.342 220.08 102.874 220.08C102.406 220.08 101.974 220.194 101.578 220.422C101.182 220.65 100.858 220.986 100.606 221.43C100.366 221.862 100.246 222.378 100.246 222.978C100.246 223.578 100.366 224.106 100.606 224.562C100.858 225.006 101.182 225.348 101.578 225.588C101.986 225.828 102.418 225.948 102.874 225.948C103.342 225.948 103.78 225.834 104.188 225.606C104.596 225.366 104.92 225.03 105.16 224.598C105.4 224.154 105.52 223.626 105.52 223.014ZM118.624 228.162C117.808 228.162 117.076 228.018 116.428 227.73C115.78 227.43 115.264 227.028 114.88 226.524C114.508 226.02 114.304 225.462 114.268 224.85H116.806C116.854 225.234 117.04 225.552 117.364 225.804C117.7 226.056 118.114 226.182 118.606 226.182C119.086 226.182 119.458 226.086 119.722 225.894C119.998 225.702 120.136 225.456 120.136 225.156C120.136 224.832 119.968 224.592 119.632 224.436C119.308 224.268 118.786 224.088 118.066 223.896C117.322 223.716 116.71 223.53 116.23 223.338C115.762 223.146 115.354 222.852 115.006 222.456C114.67 222.06 114.502 221.526 114.502 220.854C114.502 220.302 114.658 219.798 114.97 219.342C115.294 218.886 115.75 218.526 116.338 218.262C116.938 217.998 117.64 217.866 118.444 217.866C119.632 217.866 120.58 218.166 121.288 218.766C121.996 219.354 122.386 220.152 122.458 221.16H120.046C120.01 220.764 119.842 220.452 119.542 220.224C119.254 219.984 118.864 219.864 118.372 219.864C117.916 219.864 117.562 219.948 117.31 220.116C117.07 220.284 116.95 220.518 116.95 220.818C116.95 221.154 117.118 221.412 117.454 221.592C117.79 221.76 118.312 221.934 119.02 222.114C119.74 222.294 120.334 222.48 120.802 222.672C121.27 222.864 121.672 223.164 122.008 223.572C122.356 223.968 122.536 224.496 122.548 225.156C122.548 225.732 122.386 226.248 122.062 226.704C121.75 227.16 121.294 227.52 120.694 227.784C120.106 228.036 119.416 228.162 118.624 228.162ZM133.887 222.798C133.887 223.158 133.863 223.482 133.815 223.77H126.525C126.585 224.49 126.837 225.054 127.281 225.462C127.725 225.87 128.271 226.074 128.919 226.074C129.855 226.074 130.521 225.672 130.917 224.868H133.635C133.347 225.828 132.795 226.62 131.979 227.244C131.163 227.856 130.161 228.162 128.973 228.162C128.013 228.162 127.149 227.952 126.381 227.532C125.625 227.1 125.031 226.494 124.599 225.714C124.179 224.934 123.969 224.034 123.969 223.014C123.969 221.982 124.179 221.076 124.599 220.296C125.019 219.516 125.607 218.916 126.363 218.496C127.119 218.076 127.989 217.866 128.973 217.866C129.921 217.866 130.767 218.07 131.511 218.478C132.267 218.886 132.849 219.468 133.257 220.224C133.677 220.968 133.887 221.826 133.887 222.798ZM131.277 222.078C131.265 221.43 131.031 220.914 130.575 220.53C130.119 220.134 129.561 219.936 128.901 219.936C128.277 219.936 127.749 220.128 127.317 220.512C126.897 220.884 126.639 221.406 126.543 222.078H131.277ZM148.11 217.884C149.334 217.884 150.318 218.262 151.062 219.018C151.818 219.762 152.196 220.806 152.196 222.15V228H149.676V222.492C149.676 221.712 149.478 221.118 149.082 220.71C148.686 220.29 148.146 220.08 147.462 220.08C146.778 220.08 146.232 220.29 145.824 220.71C145.428 221.118 145.23 221.712 145.23 222.492V228H142.71V222.492C142.71 221.712 142.512 221.118 142.116 220.71C141.72 220.29 141.18 220.08 140.496 220.08C139.8 220.08 139.248 220.29 138.84 220.71C138.444 221.118 138.246 221.712 138.246 222.492V228H135.726V218.028H138.246V219.234C138.57 218.814 138.984 218.484 139.488 218.244C140.004 218.004 140.568 217.884 141.18 217.884C141.96 217.884 142.656 218.052 143.268 218.388C143.88 218.712 144.354 219.18 144.69 219.792C145.014 219.216 145.482 218.754 146.094 218.406C146.718 218.058 147.39 217.884 148.11 217.884Z" fill="white"/>
<path d="M80.58 293.126C79.704 293.126 78.912 292.976 78.204 292.676C77.508 292.376 76.956 291.944 76.548 291.38C76.14 290.816 75.93 290.15 75.918 289.382H78.618C78.654 289.898 78.834 290.306 79.158 290.606C79.494 290.906 79.95 291.056 80.526 291.056C81.114 291.056 81.576 290.918 81.912 290.642C82.248 290.354 82.416 289.982 82.416 289.526C82.416 289.154 82.302 288.848 82.074 288.608C81.846 288.368 81.558 288.182 81.21 288.05C80.874 287.906 80.406 287.75 79.806 287.582C78.99 287.342 78.324 287.108 77.808 286.88C77.304 286.64 76.866 286.286 76.494 285.818C76.134 285.338 75.954 284.702 75.954 283.91C75.954 283.166 76.14 282.518 76.512 281.966C76.884 281.414 77.406 280.994 78.078 280.706C78.75 280.406 79.518 280.256 80.382 280.256C81.678 280.256 82.728 280.574 83.532 281.21C84.348 281.834 84.798 282.71 84.882 283.838H82.11C82.086 283.406 81.9 283.052 81.552 282.776C81.216 282.488 80.766 282.344 80.202 282.344C79.71 282.344 79.314 282.47 79.014 282.722C78.726 282.974 78.582 283.34 78.582 283.82C78.582 284.156 78.69 284.438 78.906 284.666C79.134 284.882 79.41 285.062 79.734 285.206C80.07 285.338 80.538 285.494 81.138 285.674C81.954 285.914 82.62 286.154 83.136 286.394C83.652 286.634 84.096 286.994 84.468 287.474C84.84 287.954 85.026 288.584 85.026 289.364C85.026 290.036 84.852 290.66 84.504 291.236C84.156 291.812 83.646 292.274 82.974 292.622C82.302 292.958 81.504 293.126 80.58 293.126ZM96.4808 287.798C96.4808 288.158 96.4568 288.482 96.4088 288.77H89.1188C89.1788 289.49 89.4308 290.054 89.8748 290.462C90.3188 290.87 90.8648 291.074 91.5128 291.074C92.4488 291.074 93.1148 290.672 93.5108 289.868H96.2288C95.9408 290.828 95.3888 291.62 94.5728 292.244C93.7568 292.856 92.7548 293.162 91.5668 293.162C90.6068 293.162 89.7428 292.952 88.9748 292.532C88.2188 292.1 87.6248 291.494 87.1928 290.714C86.7728 289.934 86.5627 289.034 86.5627 288.014C86.5627 286.982 86.7728 286.076 87.1928 285.296C87.6128 284.516 88.2008 283.916 88.9568 283.496C89.7128 283.076 90.5828 282.866 91.5668 282.866C92.5148 282.866 93.3608 283.07 94.1048 283.478C94.8608 283.886 95.4428 284.468 95.8508 285.224C96.2708 285.968 96.4808 286.826 96.4808 287.798ZM93.8708 287.078C93.8588 286.43 93.6248 285.914 93.1688 285.53C92.7128 285.134 92.1548 284.936 91.4948 284.936C90.8708 284.936 90.3428 285.128 89.9108 285.512C89.4908 285.884 89.2328 286.406 89.1368 287.078H93.8708ZM97.6721 287.978C97.6721 286.97 97.8701 286.076 98.2661 285.296C98.6741 284.516 99.2261 283.916 99.9221 283.496C100.618 283.076 101.392 282.866 102.244 282.866C102.892 282.866 103.51 283.01 104.098 283.298C104.686 283.574 105.154 283.946 105.502 284.414V279.68H108.058V293H105.502V291.524C105.19 292.016 104.752 292.412 104.188 292.712C103.624 293.012 102.97 293.162 102.226 293.162C101.386 293.162 100.618 292.946 99.9221 292.514C99.2261 292.082 98.6741 291.476 98.2661 290.696C97.8701 289.904 97.6721 288.998 97.6721 287.978ZM105.52 288.014C105.52 287.402 105.4 286.88 105.16 286.448C104.92 286.004 104.596 285.668 104.188 285.44C103.78 285.2 103.342 285.08 102.874 285.08C102.406 285.08 101.974 285.194 101.578 285.422C101.182 285.65 100.858 285.986 100.606 286.43C100.366 286.862 100.246 287.378 100.246 287.978C100.246 288.578 100.366 289.106 100.606 289.562C100.858 290.006 101.182 290.348 101.578 290.588C101.986 290.828 102.418 290.948 102.874 290.948C103.342 290.948 103.78 290.834 104.188 290.606C104.596 290.366 104.92 290.03 105.16 289.598C105.4 289.154 105.52 288.626 105.52 288.014ZM118.624 293.162C117.808 293.162 117.076 293.018 116.428 292.73C115.78 292.43 115.264 292.028 114.88 291.524C114.508 291.02 114.304 290.462 114.268 289.85H116.806C116.854 290.234 117.04 290.552 117.364 290.804C117.7 291.056 118.114 291.182 118.606 291.182C119.086 291.182 119.458 291.086 119.722 290.894C119.998 290.702 120.136 290.456 120.136 290.156C120.136 289.832 119.968 289.592 119.632 289.436C119.308 289.268 118.786 289.088 118.066 288.896C117.322 288.716 116.71 288.53 116.23 288.338C115.762 288.146 115.354 287.852 115.006 287.456C114.67 287.06 114.502 286.526 114.502 285.854C114.502 285.302 114.658 284.798 114.97 284.342C115.294 283.886 115.75 283.526 116.338 283.262C116.938 282.998 117.64 282.866 118.444 282.866C119.632 282.866 120.58 283.166 121.288 283.766C121.996 284.354 122.386 285.152 122.458 286.16H120.046C120.01 285.764 119.842 285.452 119.542 285.224C119.254 284.984 118.864 284.864 118.372 284.864C117.916 284.864 117.562 284.948 117.31 285.116C117.07 285.284 116.95 285.518 116.95 285.818C116.95 286.154 117.118 286.412 117.454 286.592C117.79 286.76 118.312 286.934 119.02 287.114C119.74 287.294 120.334 287.48 120.802 287.672C121.27 287.864 121.672 288.164 122.008 288.572C122.356 288.968 122.536 289.496 122.548 290.156C122.548 290.732 122.386 291.248 122.062 291.704C121.75 292.16 121.294 292.52 120.694 292.784C120.106 293.036 119.416 293.162 118.624 293.162ZM133.887 287.798C133.887 288.158 133.863 288.482 133.815 288.77H126.525C126.585 289.49 126.837 290.054 127.281 290.462C127.725 290.87 128.271 291.074 128.919 291.074C129.855 291.074 130.521 290.672 130.917 289.868H133.635C133.347 290.828 132.795 291.62 131.979 292.244C131.163 292.856 130.161 293.162 128.973 293.162C128.013 293.162 127.149 292.952 126.381 292.532C125.625 292.1 125.031 291.494 124.599 290.714C124.179 289.934 123.969 289.034 123.969 288.014C123.969 286.982 124.179 286.076 124.599 285.296C125.019 284.516 125.607 283.916 126.363 283.496C127.119 283.076 127.989 282.866 128.973 282.866C129.921 282.866 130.767 283.07 131.511 283.478C132.267 283.886 132.849 284.468 133.257 285.224C133.677 285.968 133.887 286.826 133.887 287.798ZM131.277 287.078C131.265 286.43 131.031 285.914 130.575 285.53C130.119 285.134 129.561 284.936 128.901 284.936C128.277 284.936 127.749 285.128 127.317 285.512C126.897 285.884 126.639 286.406 126.543 287.078H131.277ZM148.11 282.884C149.334 282.884 150.318 283.262 151.062 284.018C151.818 284.762 152.196 285.806 152.196 287.15V293H149.676V287.492C149.676 286.712 149.478 286.118 149.082 285.71C148.686 285.29 148.146 285.08 147.462 285.08C146.778 285.08 146.232 285.29 145.824 285.71C145.428 286.118 145.23 286.712 145.23 287.492V293H142.71V287.492C142.71 286.712 142.512 286.118 142.116 285.71C141.72 285.29 141.18 285.08 140.496 285.08C139.8 285.08 139.248 285.29 138.84 285.71C138.444 286.118 138.246 286.712 138.246 287.492V293H135.726V283.028H138.246V284.234C138.57 283.814 138.984 283.484 139.488 283.244C140.004 283.004 140.568 282.884 141.18 282.884C141.96 282.884 142.656 283.052 143.268 283.388C143.88 283.712 144.354 284.18 144.69 284.792C145.014 284.216 145.482 283.754 146.094 283.406C146.718 283.058 147.39 282.884 148.11 282.884Z" fill="white"/>
<path d="M80.58 358.126C79.704 358.126 78.912 357.976 78.204 357.676C77.508 357.376 76.956 356.944 76.548 356.38C76.14 355.816 75.93 355.15 75.918 354.382H78.618C78.654 354.898 78.834 355.306 79.158 355.606C79.494 355.906 79.95 356.056 80.526 356.056C81.114 356.056 81.576 355.918 81.912 355.642C82.248 355.354 82.416 354.982 82.416 354.526C82.416 354.154 82.302 353.848 82.074 353.608C81.846 353.368 81.558 353.182 81.21 353.05C80.874 352.906 80.406 352.75 79.806 352.582C78.99 352.342 78.324 352.108 77.808 351.88C77.304 351.64 76.866 351.286 76.494 350.818C76.134 350.338 75.954 349.702 75.954 348.91C75.954 348.166 76.14 347.518 76.512 346.966C76.884 346.414 77.406 345.994 78.078 345.706C78.75 345.406 79.518 345.256 80.382 345.256C81.678 345.256 82.728 345.574 83.532 346.21C84.348 346.834 84.798 347.71 84.882 348.838H82.11C82.086 348.406 81.9 348.052 81.552 347.776C81.216 347.488 80.766 347.344 80.202 347.344C79.71 347.344 79.314 347.47 79.014 347.722C78.726 347.974 78.582 348.34 78.582 348.82C78.582 349.156 78.69 349.438 78.906 349.666C79.134 349.882 79.41 350.062 79.734 350.206C80.07 350.338 80.538 350.494 81.138 350.674C81.954 350.914 82.62 351.154 83.136 351.394C83.652 351.634 84.096 351.994 84.468 352.474C84.84 352.954 85.026 353.584 85.026 354.364C85.026 355.036 84.852 355.66 84.504 356.236C84.156 356.812 83.646 357.274 82.974 357.622C82.302 357.958 81.504 358.126 80.58 358.126ZM96.4808 352.798C96.4808 353.158 96.4568 353.482 96.4088 353.77H89.1188C89.1788 354.49 89.4308 355.054 89.8748 355.462C90.3188 355.87 90.8648 356.074 91.5128 356.074C92.4488 356.074 93.1148 355.672 93.5108 354.868H96.2288C95.9408 355.828 95.3888 356.62 94.5728 357.244C93.7568 357.856 92.7548 358.162 91.5668 358.162C90.6068 358.162 89.7428 357.952 88.9748 357.532C88.2188 357.1 87.6248 356.494 87.1928 355.714C86.7728 354.934 86.5627 354.034 86.5627 353.014C86.5627 351.982 86.7728 351.076 87.1928 350.296C87.6128 349.516 88.2008 348.916 88.9568 348.496C89.7128 348.076 90.5828 347.866 91.5668 347.866C92.5148 347.866 93.3608 348.07 94.1048 348.478C94.8608 348.886 95.4428 349.468 95.8508 350.224C96.2708 350.968 96.4808 351.826 96.4808 352.798ZM93.8708 352.078C93.8588 351.43 93.6248 350.914 93.1688 350.53C92.7128 350.134 92.1548 349.936 91.4948 349.936C90.8708 349.936 90.3428 350.128 89.9108 350.512C89.4908 350.884 89.2328 351.406 89.1368 352.078H93.8708ZM97.6721 352.978C97.6721 351.97 97.8701 351.076 98.2661 350.296C98.6741 349.516 99.2261 348.916 99.9221 348.496C100.618 348.076 101.392 347.866 102.244 347.866C102.892 347.866 103.51 348.01 104.098 348.298C104.686 348.574 105.154 348.946 105.502 349.414V344.68H108.058V358H105.502V356.524C105.19 357.016 104.752 357.412 104.188 357.712C103.624 358.012 102.97 358.162 102.226 358.162C101.386 358.162 100.618 357.946 99.9221 357.514C99.2261 357.082 98.6741 356.476 98.2661 355.696C97.8701 354.904 97.6721 353.998 97.6721 352.978ZM105.52 353.014C105.52 352.402 105.4 351.88 105.16 351.448C104.92 351.004 104.596 350.668 104.188 350.44C103.78 350.2 103.342 350.08 102.874 350.08C102.406 350.08 101.974 350.194 101.578 350.422C101.182 350.65 100.858 350.986 100.606 351.43C100.366 351.862 100.246 352.378 100.246 352.978C100.246 353.578 100.366 354.106 100.606 354.562C100.858 355.006 101.182 355.348 101.578 355.588C101.986 355.828 102.418 355.948 102.874 355.948C103.342 355.948 103.78 355.834 104.188 355.606C104.596 355.366 104.92 355.03 105.16 354.598C105.4 354.154 105.52 353.626 105.52 353.014ZM118.624 358.162C117.808 358.162 117.076 358.018 116.428 357.73C115.78 357.43 115.264 357.028 114.88 356.524C114.508 356.02 114.304 355.462 114.268 354.85H116.806C116.854 355.234 117.04 355.552 117.364 355.804C117.7 356.056 118.114 356.182 118.606 356.182C119.086 356.182 119.458 356.086 119.722 355.894C119.998 355.702 120.136 355.456 120.136 355.156C120.136 354.832 119.968 354.592 119.632 354.436C119.308 354.268 118.786 354.088 118.066 353.896C117.322 353.716 116.71 353.53 116.23 353.338C115.762 353.146 115.354 352.852 115.006 352.456C114.67 352.06 114.502 351.526 114.502 350.854C114.502 350.302 114.658 349.798 114.97 349.342C115.294 348.886 115.75 348.526 116.338 348.262C116.938 347.998 117.64 347.866 118.444 347.866C119.632 347.866 120.58 348.166 121.288 348.766C121.996 349.354 122.386 350.152 122.458 351.16H120.046C120.01 350.764 119.842 350.452 119.542 350.224C119.254 349.984 118.864 349.864 118.372 349.864C117.916 349.864 117.562 349.948 117.31 350.116C117.07 350.284 116.95 350.518 116.95 350.818C116.95 351.154 117.118 351.412 117.454 351.592C117.79 351.76 118.312 351.934 119.02 352.114C119.74 352.294 120.334 352.48 120.802 352.672C121.27 352.864 121.672 353.164 122.008 353.572C122.356 353.968 122.536 354.496 122.548 355.156C122.548 355.732 122.386 356.248 122.062 356.704C121.75 357.16 121.294 357.52 120.694 357.784C120.106 358.036 119.416 358.162 118.624 358.162ZM133.887 352.798C133.887 353.158 133.863 353.482 133.815 353.77H126.525C126.585 354.49 126.837 355.054 127.281 355.462C127.725 355.87 128.271 356.074 128.919 356.074C129.855 356.074 130.521 355.672 130.917 354.868H133.635C133.347 355.828 132.795 356.62 131.979 357.244C131.163 357.856 130.161 358.162 128.973 358.162C128.013 358.162 127.149 357.952 126.381 357.532C125.625 357.1 125.031 356.494 124.599 355.714C124.179 354.934 123.969 354.034 123.969 353.014C123.969 351.982 124.179 351.076 124.599 350.296C125.019 349.516 125.607 348.916 126.363 348.496C127.119 348.076 127.989 347.866 128.973 347.866C129.921 347.866 130.767 348.07 131.511 348.478C132.267 348.886 132.849 349.468 133.257 350.224C133.677 350.968 133.887 351.826 133.887 352.798ZM131.277 352.078C131.265 351.43 131.031 350.914 130.575 350.53C130.119 350.134 129.561 349.936 128.901 349.936C128.277 349.936 127.749 350.128 127.317 350.512C126.897 350.884 126.639 351.406 126.543 352.078H131.277ZM148.11 347.884C149.334 347.884 150.318 348.262 151.062 349.018C151.818 349.762 152.196 350.806 152.196 352.15V358H149.676V352.492C149.676 351.712 149.478 351.118 149.082 350.71C148.686 350.29 148.146 350.08 147.462 350.08C146.778 350.08 146.232 350.29 145.824 350.71C145.428 351.118 145.23 351.712 145.23 352.492V358H142.71V352.492C142.71 351.712 142.512 351.118 142.116 350.71C141.72 350.29 141.18 350.08 140.496 350.08C139.8 350.08 139.248 350.29 138.84 350.71C138.444 351.118 138.246 351.712 138.246 352.492V358H135.726V348.028H138.246V349.234C138.57 348.814 138.984 348.484 139.488 348.244C140.004 348.004 140.568 347.884 141.18 347.884C141.96 347.884 142.656 348.052 143.268 348.388C143.88 348.712 144.354 349.18 144.69 349.792C145.014 349.216 145.482 348.754 146.094 348.406C146.718 348.058 147.39 347.884 148.11 347.884Z" fill="white"/>
</svg>
